<?xml version="1.0" encoding="UTF-8"?>
<svg xmlns="http://www.w3.org/2000/svg" xmlns:xlink="http://www.w3.org/1999/xlink" viewBox="0 0 48 48" width="48px" height="48px">
<g id="surface191082610">
<path style=" stroke:none;fill-rule:nonzero;fill:rgb(83.92157%,89.803922%,89.803922%);fill-opacity:1;" d="M 31.179688 32.335938 C 31.105469 32.082031 31.21875 31.835938 31.472656 31.734375 C 32.054688 31.5 32.652344 31.246094 33.28125 31.171875 C 33.273438 31.144531 33.273438 31.117188 33.261719 31.085938 C 33.132812 29.617188 32.992188 28.152344 32.867188 26.679688 C 32.785156 25.648438 32.738281 24.609375 32.585938 23.578125 C 32.4375 22.539062 32.257812 21.496094 32.195312 20.4375 C 32.175781 20.101562 32.128906 19.679688 32.183594 19.285156 C 30.757812 19.285156 29.335938 19.273438 27.910156 19.320312 C 26.296875 19.378906 24.683594 19.472656 23.0625 19.527344 C 21.375 19.585938 19.6875 19.566406 17.992188 19.566406 C 17.445312 19.566406 16.914062 19.585938 16.378906 19.527344 C 16.292969 19.519531 16.210938 19.519531 16.117188 19.507812 C 16.105469 19.519531 16.097656 19.539062 16.085938 19.546875 C 16.011719 19.632812 16.050781 20.070312 16.058594 20.242188 C 16.085938 20.605469 16.132812 20.972656 16.191406 21.335938 C 16.3125 22.179688 16.398438 23.015625 16.40625 23.878906 C 16.414062 25.171875 16.292969 26.476562 16.359375 27.769531 C 16.414062 28.808594 16.554688 29.839844 16.613281 30.882812 C 16.621094 30.917969 16.632812 30.964844 16.632812 31.011719 L 16.632812 31.144531 L 17.953125 31.144531 C 18.28125 31.144531 18.476562 31.386719 18.449219 31.695312 C 18.347656 32.785156 18.695312 33.890625 18.890625 34.960938 C 19.039062 35.765625 19.050781 36.589844 19.246094 37.386719 C 19.40625 38.042969 19.660156 38.886719 20.296875 39.234375 C 20.664062 39.429688 21.207031 39.601562 21.515625 39.253906 C 22.257812 38.4375 22.210938 36.929688 22.191406 35.90625 C 22.171875 34.867188 22.085938 33.816406 21.917969 32.792969 C 21.816406 32.664062 21.75 32.53125 21.75 32.34375 C 21.75 32.203125 21.796875 32.089844 21.863281 32.015625 C 21.898438 31.847656 22.03125 31.695312 22.265625 31.695312 L 24.160156 31.695312 C 25.3125 31.695312 26.492188 31.40625 27.648438 31.566406 C 27.664062 31.566406 27.683594 31.574219 27.703125 31.574219 C 27.917969 31.585938 28.125 31.714844 28.164062 31.988281 C 28.398438 33.757812 28.050781 35.671875 28.695312 37.378906 C 28.960938 38.070312 29.4375 38.632812 30.148438 38.886719 C 30.523438 39.019531 30.742188 38.945312 30.964844 38.632812 C 31.574219 37.78125 31.546875 36.328125 31.519531 35.304688 C 31.492188 34.339844 31.425781 33.1875 31.179688 32.335938 Z M 31.753906 14.242188 C 31.3125 13.519531 30.777344 12.796875 30.140625 12.234375 C 30.046875 12.148438 29.945312 12.066406 29.851562 11.992188 C 29.632812 12.019531 29.445312 11.859375 29.371094 11.652344 C 28.199219 10.902344 26.820312 10.59375 25.40625 10.613281 C 23.53125 10.640625 21.535156 10.960938 19.820312 11.738281 C 18.929688 12.140625 18.066406 12.703125 17.585938 13.574219 C 17.164062 14.351562 16.882812 15.195312 16.445312 15.957031 C 21.769531 15.976562 27.09375 16.226562 32.429688 16.238281 C 32.492188 15.554688 32.082031 14.773438 31.753906 14.242188 Z M 22.246094 13.320312 C 22.265625 13.78125 21.757812 14.175781 21.328125 14.242188 C 20.898438 14.304688 20.335938 14.070312 20.117188 13.679688 C 20.015625 13.480469 19.976562 13.292969 20.007812 13.125 C 20.007812 13.117188 20.007812 13.105469 20.007812 13.097656 L 20.007812 12.675781 C 20.007812 12.394531 20.175781 12.226562 20.4375 12.167969 C 20.632812 12.132812 20.867188 12.121094 21.085938 12.160156 C 21.695312 12.027344 22.3125 12.253906 22.339844 13.023438 C 22.339844 13.144531 22.304688 13.246094 22.246094 13.320312 Z M 28.667969 13.320312 C 28.6875 13.78125 28.179688 14.175781 27.75 14.242188 C 27.320312 14.304688 26.757812 14.070312 26.539062 13.679688 C 26.4375 13.480469 26.398438 13.292969 26.429688 13.125 C 26.429688 13.117188 26.429688 13.105469 26.429688 13.097656 L 26.429688 12.675781 C 26.429688 12.394531 26.597656 12.226562 26.859375 12.167969 C 27.054688 12.132812 27.289062 12.121094 27.507812 12.160156 C 28.117188 12.027344 28.734375 12.253906 28.761719 13.023438 C 28.761719 13.144531 28.726562 13.246094 28.667969 13.320312 Z M 37.480469 28.085938 C 37.472656 26.671875 37.359375 25.257812 37.191406 23.839844 C 37.105469 23.109375 37.011719 22.386719 36.917969 21.65625 C 36.863281 21.1875 36.882812 20.71875 36.835938 20.25 C 36.789062 19.714844 36.683594 19.21875 36.234375 18.882812 C 35.710938 18.496094 35.183594 18.65625 34.789062 19.117188 C 34.742188 19.164062 34.695312 19.199219 34.648438 19.226562 C 34.640625 19.238281 34.632812 19.246094 34.621094 19.265625 C 34.527344 19.949219 34.707031 20.71875 34.789062 21.394531 C 34.914062 22.3125 34.960938 23.222656 35.023438 24.140625 C 35.136719 25.585938 35.230469 27.046875 35.464844 28.472656 C 35.550781 29.007812 35.878906 30.132812 36.628906 30.007812 C 37.40625 29.886719 37.492188 28.679688 37.480469 28.085938 Z M 13.621094 26.765625 C 13.546875 25.734375 13.640625 24.722656 13.667969 23.691406 C 13.695312 22.226562 13.667969 20.773438 13.585938 19.3125 C 13.574219 19.304688 13.566406 19.285156 13.546875 19.273438 C 13.492188 19.265625 13.445312 19.257812 13.386719 19.238281 C 13.210938 19.199219 13.023438 19.152344 12.84375 19.152344 C 12.101562 19.164062 11.476562 19.59375 11.136719 20.25 C 10.5 21.496094 10.6875 23.0625 10.894531 24.394531 C 11.023438 25.210938 11.269531 26.023438 11.304688 26.851562 C 11.335938 27.601562 11.351562 28.351562 11.429688 29.101562 C 11.503906 29.765625 11.585938 30.589844 12.019531 31.144531 C 12.335938 31.546875 12.929688 31.492188 13.238281 31.097656 C 13.648438 30.570312 13.707031 29.765625 13.726562 29.128906 C 13.742188 28.339844 13.6875 27.554688 13.621094 26.765625 Z M 13.621094 26.765625 "/>
<path style=" stroke:none;fill-rule:nonzero;fill:rgb(79.607844%,85.882354%,17.647059%);fill-opacity:1;" d="M 44.457031 15.160156 C 42.945312 10.789062 40.078125 6.992188 35.898438 4.882812 C 31.125 2.476562 25.492188 2.25 20.296875 3.074219 C 15.628906 3.824219 10.707031 5.511719 7.210938 8.8125 C 5.371094 10.546875 3.957031 12.648438 3.207031 15.074219 C 2.457031 17.511719 2.230469 20.054688 2.070312 22.585938 C 2.0625 22.6875 2.035156 22.773438 1.976562 22.835938 C 1.976562 22.855469 1.988281 22.882812 1.988281 22.914062 C 1.988281 27.871094 1.882812 33.066406 4.808594 37.339844 C 7.179688 40.820312 10.855469 43.105469 14.859375 44.25 C 23.109375 46.613281 33.066406 45.148438 39.695312 39.488281 C 46.640625 33.554688 47.277344 23.335938 44.457031 15.160156 Z M 14.035156 31.613281 C 13.640625 32.15625 12.929688 32.484375 12.261719 32.34375 C 11.578125 32.203125 11.136719 31.648438 10.902344 31.023438 C 10.359375 29.617188 10.480469 28.078125 10.359375 26.605469 C 10.285156 25.679688 9.984375 24.757812 9.882812 23.820312 C 9.769531 22.800781 9.703125 21.683594 9.984375 20.679688 C 10.257812 19.734375 10.847656 18.777344 11.804688 18.402344 C 12.320312 18.195312 12.890625 18.160156 13.433594 18.289062 C 13.640625 18.335938 13.808594 18.367188 13.960938 18.429688 C 14.242188 18.28125 14.652344 18.375 14.652344 18.777344 L 14.652344 19.058594 C 14.652344 19.179688 14.605469 19.3125 14.53125 19.40625 C 14.617188 20.867188 14.644531 22.332031 14.597656 23.804688 C 14.570312 24.835938 14.492188 25.835938 14.570312 26.859375 C 14.691406 28.339844 14.960938 30.320312 14.035156 31.613281 Z M 15.449219 15.796875 C 16.078125 14.820312 16.359375 13.648438 17.042969 12.703125 C 17.53125 12.027344 18.207031 11.523438 18.945312 11.128906 C 18.476562 10.472656 18.121094 9.730469 17.820312 8.992188 C 17.597656 8.429688 18.476562 8.117188 18.703125 8.679688 C 18.992188 9.382812 19.320312 10.070312 19.773438 10.6875 C 19.78125 10.707031 19.789062 10.726562 19.808594 10.734375 C 21.730469 9.964844 23.933594 9.601562 25.996094 9.695312 C 27.375 9.757812 28.726562 10.125 29.867188 10.847656 C 30.796875 10.058594 31.527344 9.074219 32.257812 8.101562 C 32.625 7.613281 33.328125 8.242188 32.960938 8.71875 C 32.25 9.675781 31.519531 10.613281 30.636719 11.410156 C 30.851562 11.597656 31.058594 11.792969 31.246094 12.007812 C 32.34375 13.246094 33.957031 15.300781 33.167969 17.054688 C 33.019531 17.390625 32.644531 17.363281 32.4375 17.175781 C 26.925781 17.164062 21.421875 16.894531 15.910156 16.894531 C 15.523438 16.894531 15.355469 16.5 15.441406 16.226562 C 15.367188 16.117188 15.347656 15.957031 15.449219 15.796875 Z M 34.003906 31.425781 C 34.117188 31.695312 34.003906 32.0625 33.628906 32.082031 C 33.121094 32.101562 32.644531 32.269531 32.175781 32.457031 C 32.203125 32.585938 32.222656 32.726562 32.25 32.859375 C 32.457031 34.152344 32.523438 35.484375 32.398438 36.789062 C 32.316406 37.808594 32.101562 39.328125 31.003906 39.777344 C 29.644531 40.332031 28.199219 38.839844 27.796875 37.6875 C 27.207031 36 27.429688 34.210938 27.261719 32.464844 C 26.605469 32.417969 25.941406 32.570312 25.285156 32.605469 C 24.898438 32.632812 24.515625 32.625 24.132812 32.625 L 22.820312 32.625 C 22.820312 32.644531 22.828125 32.664062 22.828125 32.679688 C 22.847656 32.792969 22.867188 32.90625 22.882812 33.019531 C 22.921875 33.308594 22.960938 33.601562 22.996094 33.898438 C 23.070312 34.667969 23.128906 35.4375 23.117188 36.214844 C 23.101562 37.425781 23.082031 39.328125 21.945312 40.097656 C 21.367188 40.492188 20.570312 40.445312 19.96875 40.117188 C 19.164062 39.675781 18.683594 38.878906 18.441406 38.015625 C 18.179688 37.078125 18.160156 36.113281 17.980469 35.164062 C 17.792969 34.132812 17.523438 33.113281 17.511719 32.0625 L 16.480469 32.0625 C 16.320312 32.0625 16.210938 31.996094 16.125 31.914062 C 15.910156 31.914062 15.703125 31.78125 15.695312 31.492188 C 15.683594 30.074219 15.402344 28.6875 15.414062 27.273438 C 15.421875 25.914062 15.523438 24.542969 15.449219 23.183594 C 15.402344 22.386719 15.28125 21.617188 15.179688 20.832031 C 15.113281 20.289062 14.980469 19.546875 15.289062 19.039062 C 15.253906 18.898438 15.28125 18.742188 15.394531 18.636719 C 15.523438 18.515625 15.664062 18.46875 15.84375 18.46875 C 15.945312 18.46875 16.03125 18.488281 16.097656 18.535156 C 16.144531 18.542969 16.191406 18.542969 16.238281 18.554688 C 16.414062 18.570312 16.601562 18.589844 16.78125 18.609375 C 16.808594 18.609375 16.828125 18.609375 16.847656 18.617188 C 16.875 18.617188 16.921875 18.617188 17.015625 18.617188 L 18.65625 18.617188 C 20.222656 18.617188 21.789062 18.628906 23.34375 18.570312 C 26.316406 18.460938 29.277344 18.347656 32.257812 18.335938 C 32.269531 18.335938 32.277344 18.335938 32.289062 18.335938 L 32.578125 18.335938 C 32.632812 18.335938 32.679688 18.347656 32.726562 18.355469 C 33.261719 18.09375 33.5625 18.976562 33.039062 19.246094 C 33.253906 19.144531 33.160156 19.097656 33.121094 19.320312 C 33.101562 19.460938 33.09375 19.601562 33.09375 19.742188 C 33.09375 20.203125 33.140625 20.671875 33.1875 21.132812 C 33.289062 22.078125 33.449219 23.007812 33.570312 23.953125 C 33.710938 25.023438 33.75 26.109375 33.84375 27.1875 C 33.957031 28.460938 34.078125 29.726562 34.191406 31.003906 C 34.21875 31.210938 34.125 31.351562 34.003906 31.425781 Z M 38.148438 29.71875 C 37.882812 30.335938 37.304688 30.984375 36.5625 30.964844 C 35.765625 30.9375 35.183594 30.421875 34.855469 29.726562 C 34.613281 29.203125 34.527344 28.632812 34.453125 28.058594 C 34.367188 27.367188 34.292969 26.671875 34.226562 25.976562 C 34.117188 24.75 34.070312 23.503906 33.945312 22.273438 C 33.871094 21.523438 33.742188 20.773438 33.683594 20.023438 C 33.65625 19.566406 33.570312 18.804688 34.039062 18.570312 C 34.050781 18.554688 34.070312 18.535156 34.078125 18.523438 C 34.949219 17.511719 36.476562 17.484375 37.273438 18.628906 C 37.941406 19.585938 37.753906 20.851562 37.894531 21.945312 C 38.070312 23.324219 38.25 24.710938 38.34375 26.101562 C 38.417969 27.253906 38.625 28.621094 38.148438 29.71875 Z M 38.148438 29.71875 "/>
<path style=" stroke:none;fill-rule:nonzero;fill:rgb(0%,0%,0%);fill-opacity:1;" d="M 45.730469 15.816406 C 44.398438 11.417969 41.898438 7.539062 38.042969 4.96875 C 33.703125 2.0625 28.171875 1.359375 23.0625 1.734375 C 18.214844 2.089844 13.257812 3.414062 9.132812 6.046875 C 7.105469 7.339844 5.296875 9.039062 3.976562 11.054688 C 2.578125 13.179688 1.867188 15.628906 1.480469 18.121094 C 1.265625 19.539062 1.164062 20.960938 1.070312 22.398438 C 1.058594 22.480469 1.078125 22.566406 1.105469 22.640625 C 1.023438 22.726562 0.964844 22.847656 0.964844 22.996094 C 0.964844 25.820312 0.910156 28.660156 1.398438 31.453125 C 1.847656 33.992188 2.820312 36.414062 4.359375 38.492188 C 7.097656 42.195312 11.25 44.429688 15.648438 45.523438 C 23.980469 47.605469 33.851562 45.871094 40.445312 40.171875 C 47.390625 34.164062 48.253906 24.148438 45.730469 15.816406 Z M 39.695312 39.488281 C 33.054688 45.148438 23.109375 46.613281 14.859375 44.25 C 10.855469 43.105469 7.179688 40.820312 4.808594 37.339844 C 1.894531 33.066406 1.988281 27.871094 1.988281 22.914062 C 1.988281 22.882812 1.988281 22.867188 1.976562 22.835938 C 2.023438 22.773438 2.0625 22.6875 2.070312 22.585938 C 2.230469 20.054688 2.457031 17.511719 3.207031 15.074219 C 3.945312 12.648438 5.371094 10.546875 7.210938 8.8125 C 10.707031 5.511719 15.628906 3.824219 20.296875 3.085938 C 25.5 2.257812 31.125 2.484375 35.898438 4.894531 C 40.078125 7.003906 42.9375 10.808594 44.457031 15.167969 C 47.277344 23.335938 46.640625 33.554688 39.695312 39.488281 Z M 39.695312 39.488281 "/>
<path style=" stroke:none;fill-rule:nonzero;fill:rgb(0.392157%,0.392157%,0.392157%);fill-opacity:1;" d="M 31.246094 12.019531 C 31.058594 11.804688 30.851562 11.605469 30.636719 11.417969 C 31.519531 10.621094 32.25 9.683594 32.960938 8.726562 C 33.328125 8.25 32.625 7.621094 32.257812 8.109375 C 31.527344 9.085938 30.796875 10.058594 29.867188 10.855469 C 28.726562 10.132812 27.375 9.769531 25.996094 9.703125 C 23.933594 9.609375 21.730469 9.976562 19.808594 10.742188 C 19.800781 10.726562 19.789062 10.707031 19.773438 10.695312 C 19.320312 10.078125 18.984375 9.394531 18.703125 8.691406 C 18.476562 8.136719 17.585938 8.4375 17.820312 9 C 18.121094 9.742188 18.476562 10.480469 18.945312 11.136719 C 18.207031 11.523438 17.53125 12.039062 17.042969 12.710938 C 16.359375 13.660156 16.085938 14.832031 15.449219 15.804688 C 15.347656 15.964844 15.355469 16.125 15.441406 16.238281 C 15.347656 16.507812 15.515625 16.902344 15.910156 16.902344 C 21.421875 16.902344 26.925781 17.175781 32.4375 17.183594 C 32.644531 17.382812 33.019531 17.398438 33.167969 17.0625 C 33.957031 15.300781 32.335938 13.257812 31.246094 12.019531 Z M 32.429688 16.238281 C 27.101562 16.226562 21.769531 15.984375 16.445312 15.957031 C 16.882812 15.1875 17.15625 14.34375 17.585938 13.574219 C 18.066406 12.703125 18.9375 12.140625 19.820312 11.738281 C 21.535156 10.960938 23.53125 10.632812 25.40625 10.613281 C 26.820312 10.59375 28.199219 10.902344 29.371094 11.652344 C 29.4375 11.859375 29.632812 12.019531 29.851562 11.992188 C 29.953125 12.066406 30.046875 12.148438 30.140625 12.234375 C 30.769531 12.796875 31.304688 13.527344 31.753906 14.242188 C 32.082031 14.773438 32.492188 15.554688 32.429688 16.238281 Z M 32.429688 16.238281 "/>
<path style=" stroke:none;fill-rule:nonzero;fill:rgb(0.392157%,0.392157%,0.392157%);fill-opacity:1;" d="M 21.085938 12.148438 C 20.867188 12.113281 20.632812 12.121094 20.4375 12.160156 C 20.175781 12.207031 20.007812 12.382812 20.007812 12.664062 L 20.007812 13.085938 C 20.007812 13.097656 20.007812 13.105469 20.007812 13.117188 C 19.976562 13.292969 20.015625 13.480469 20.117188 13.667969 C 20.335938 14.070312 20.898438 14.296875 21.328125 14.230469 C 21.757812 14.164062 22.265625 13.773438 22.246094 13.3125 C 22.3125 13.238281 22.351562 13.132812 22.339844 13.003906 C 22.3125 12.242188 21.683594 12.027344 21.085938 12.148438 Z M 27.507812 12.148438 C 27.289062 12.113281 27.054688 12.121094 26.859375 12.160156 C 26.597656 12.207031 26.429688 12.382812 26.429688 12.664062 L 26.429688 13.085938 C 26.429688 13.097656 26.429688 13.105469 26.429688 13.117188 C 26.398438 13.292969 26.4375 13.480469 26.539062 13.667969 C 26.757812 14.070312 27.320312 14.296875 27.75 14.230469 C 28.179688 14.164062 28.6875 13.773438 28.667969 13.3125 C 28.734375 13.238281 28.773438 13.132812 28.761719 13.003906 C 28.734375 12.242188 28.105469 12.027344 27.507812 12.148438 Z M 34.199219 31.011719 C 34.085938 29.738281 33.964844 28.472656 33.851562 27.195312 C 33.757812 26.117188 33.722656 25.03125 33.582031 23.960938 C 33.460938 23.023438 33.300781 22.085938 33.195312 21.140625 C 33.140625 20.679688 33.101562 20.222656 33.101562 19.753906 C 33.101562 19.613281 33.113281 19.472656 33.132812 19.332031 C 33.160156 19.105469 33.261719 19.152344 33.046875 19.257812 C 33.582031 18.992188 33.28125 18.113281 32.738281 18.367188 C 32.691406 18.347656 32.644531 18.347656 32.585938 18.347656 L 32.296875 18.347656 C 32.289062 18.347656 32.277344 18.347656 32.269531 18.347656 C 29.289062 18.355469 26.335938 18.46875 23.351562 18.582031 C 21.789062 18.636719 20.230469 18.628906 18.664062 18.628906 L 17.015625 18.628906 C 16.921875 18.628906 16.875 18.628906 16.847656 18.628906 C 16.835938 18.628906 16.808594 18.628906 16.78125 18.617188 C 16.601562 18.601562 16.414062 18.582031 16.238281 18.5625 C 16.191406 18.554688 16.144531 18.554688 16.097656 18.542969 C 16.03125 18.507812 15.945312 18.476562 15.84375 18.476562 C 15.664062 18.476562 15.535156 18.523438 15.394531 18.648438 C 15.28125 18.757812 15.253906 18.910156 15.289062 19.050781 C 14.992188 19.554688 15.113281 20.296875 15.179688 20.839844 C 15.273438 21.628906 15.402344 22.398438 15.449219 23.195312 C 15.523438 24.554688 15.414062 25.921875 15.414062 27.28125 C 15.402344 28.695312 15.683594 30.085938 15.695312 31.5 C 15.695312 31.78125 15.898438 31.921875 16.125 31.921875 C 16.210938 32.015625 16.332031 32.070312 16.480469 32.070312 L 17.511719 32.070312 C 17.523438 33.121094 17.792969 34.144531 17.980469 35.175781 C 18.160156 36.121094 18.179688 37.085938 18.441406 38.023438 C 18.683594 38.886719 19.164062 39.683594 19.96875 40.125 C 20.578125 40.453125 21.367188 40.507812 21.945312 40.105469 C 23.082031 39.335938 23.109375 37.433594 23.117188 36.226562 C 23.128906 35.457031 23.082031 34.679688 22.996094 33.910156 C 22.96875 33.617188 22.929688 33.320312 22.882812 33.027344 C 22.867188 32.914062 22.847656 32.804688 22.828125 32.691406 C 22.828125 32.671875 22.820312 32.652344 22.820312 32.632812 L 24.132812 32.632812 C 24.515625 32.632812 24.898438 32.632812 25.285156 32.617188 C 25.941406 32.570312 26.597656 32.417969 27.261719 32.476562 C 27.429688 34.21875 27.207031 36.007812 27.796875 37.695312 C 28.199219 38.851562 29.632812 40.339844 31.003906 39.789062 C 32.101562 39.335938 32.304688 37.820312 32.398438 36.796875 C 32.511719 35.492188 32.445312 34.164062 32.25 32.867188 C 32.230469 32.738281 32.203125 32.597656 32.175781 32.464844 C 32.644531 32.277344 33.132812 32.109375 33.628906 32.089844 C 34.003906 32.082031 34.117188 31.707031 34.003906 31.433594 C 34.125 31.351562 34.21875 31.210938 34.199219 31.011719 Z M 31.460938 31.734375 C 31.21875 31.835938 31.097656 32.082031 31.171875 32.335938 C 31.425781 33.1875 31.480469 34.339844 31.5 35.324219 C 31.519531 36.347656 31.554688 37.808594 30.945312 38.652344 C 30.730469 38.953125 30.507812 39.039062 30.132812 38.90625 C 29.417969 38.652344 28.941406 38.089844 28.679688 37.398438 C 28.03125 35.691406 28.386719 33.777344 28.144531 32.007812 C 28.105469 31.734375 27.890625 31.601562 27.683594 31.59375 C 27.664062 31.59375 27.648438 31.585938 27.628906 31.585938 C 26.476562 31.425781 25.304688 31.714844 24.140625 31.714844 L 22.246094 31.714844 C 22.011719 31.714844 21.882812 31.855469 21.84375 32.035156 C 21.769531 32.117188 21.722656 32.222656 21.730469 32.363281 C 21.742188 32.550781 21.796875 32.679688 21.898438 32.8125 C 22.078125 33.84375 22.164062 34.882812 22.171875 35.925781 C 22.191406 36.945312 22.238281 38.457031 21.496094 39.273438 C 21.179688 39.617188 20.644531 39.449219 20.277344 39.253906 C 19.640625 38.90625 19.386719 38.0625 19.226562 37.40625 C 19.039062 36.609375 19.023438 35.773438 18.871094 34.976562 C 18.675781 33.917969 18.335938 32.8125 18.429688 31.714844 C 18.460938 31.398438 18.261719 31.164062 17.933594 31.164062 L 16.613281 31.164062 L 16.613281 31.03125 C 16.613281 30.984375 16.601562 30.9375 16.59375 30.898438 C 16.546875 29.859375 16.398438 28.828125 16.339844 27.789062 C 16.273438 26.492188 16.398438 25.191406 16.386719 23.898438 C 16.378906 23.042969 16.304688 22.199219 16.171875 21.355469 C 16.117188 20.992188 16.070312 20.625 16.039062 20.257812 C 16.03125 20.082031 15.992188 19.648438 16.070312 19.566406 C 16.078125 19.554688 16.085938 19.539062 16.097656 19.527344 C 16.191406 19.539062 16.285156 19.539062 16.359375 19.546875 C 16.894531 19.601562 17.4375 19.585938 17.972656 19.585938 C 19.660156 19.585938 21.355469 19.601562 23.042969 19.546875 C 24.65625 19.5 26.269531 19.398438 27.890625 19.339844 C 29.316406 19.292969 30.742188 19.292969 32.164062 19.304688 C 32.109375 19.695312 32.15625 20.128906 32.175781 20.457031 C 32.242188 21.507812 32.417969 22.546875 32.570312 23.597656 C 32.71875 24.628906 32.765625 25.667969 32.851562 26.699219 C 32.972656 28.171875 33.113281 29.632812 33.242188 31.105469 C 33.242188 31.132812 33.253906 31.164062 33.261719 31.191406 C 32.652344 31.246094 32.054688 31.5 31.460938 31.734375 Z M 38.34375 26.089844 C 38.25 24.703125 38.070312 23.316406 37.894531 21.9375 C 37.753906 20.839844 37.941406 19.574219 37.273438 18.617188 C 36.476562 17.464844 34.941406 17.503906 34.078125 18.515625 C 34.058594 18.535156 34.050781 18.554688 34.039062 18.5625 C 33.570312 18.804688 33.65625 19.554688 33.683594 20.015625 C 33.742188 20.773438 33.871094 21.515625 33.945312 22.265625 C 34.078125 23.492188 34.117188 24.730469 34.226562 25.96875 C 34.292969 26.664062 34.367188 27.355469 34.453125 28.050781 C 34.527344 28.621094 34.613281 29.195312 34.855469 29.71875 C 35.183594 30.421875 35.765625 30.9375 36.5625 30.957031 C 37.304688 30.984375 37.882812 30.335938 38.148438 29.710938 C 38.625 28.621094 38.417969 27.253906 38.34375 26.089844 Z M 36.628906 30.019531 C 35.867188 30.148438 35.550781 29.015625 35.464844 28.480469 C 35.230469 27.054688 35.136719 25.59375 35.023438 24.148438 C 34.960938 23.230469 34.902344 22.3125 34.789062 21.402344 C 34.707031 20.726562 34.527344 19.960938 34.621094 19.273438 C 34.632812 19.265625 34.640625 19.257812 34.648438 19.238281 C 34.695312 19.210938 34.742188 19.171875 34.789062 19.125 C 35.195312 18.65625 35.71875 18.507812 36.234375 18.890625 C 36.683594 19.226562 36.789062 19.726562 36.835938 20.257812 C 36.871094 20.726562 36.851562 21.195312 36.917969 21.664062 C 37.011719 22.398438 37.105469 23.117188 37.191406 23.851562 C 37.359375 25.257812 37.472656 26.671875 37.480469 28.097656 C 37.492188 28.679688 37.40625 29.886719 36.628906 30.019531 Z M 14.578125 26.867188 C 14.503906 25.847656 14.578125 24.835938 14.605469 23.8125 C 14.644531 22.351562 14.617188 20.878906 14.539062 19.414062 C 14.617188 19.320312 14.664062 19.191406 14.664062 19.070312 L 14.664062 18.789062 C 14.664062 18.382812 14.25 18.28125 13.96875 18.441406 C 13.820312 18.375 13.640625 18.347656 13.445312 18.300781 C 12.898438 18.179688 12.328125 18.214844 11.8125 18.414062 C 10.855469 18.789062 10.265625 19.753906 9.992188 20.691406 C 9.710938 21.695312 9.769531 22.808594 9.890625 23.832031 C 9.992188 24.757812 10.292969 25.6875 10.367188 26.617188 C 10.492188 28.085938 10.367188 29.625 10.914062 31.03125 C 11.15625 31.660156 11.585938 32.203125 12.273438 32.351562 C 12.945312 32.492188 13.660156 32.164062 14.042969 31.621094 C 14.960938 30.320312 14.691406 28.339844 14.578125 26.867188 Z M 13.726562 29.136719 C 13.707031 29.785156 13.648438 30.582031 13.238281 31.105469 C 12.929688 31.5 12.335938 31.554688 12.019531 31.152344 C 11.585938 30.601562 11.503906 29.785156 11.429688 29.109375 C 11.34375 28.359375 11.335938 27.609375 11.304688 26.859375 C 11.269531 26.035156 11.023438 25.21875 10.894531 24.402344 C 10.6875 23.070312 10.507812 21.507812 11.136719 20.257812 C 11.476562 19.59375 12.09375 19.164062 12.84375 19.164062 C 13.023438 19.164062 13.210938 19.210938 13.386719 19.246094 C 13.445312 19.265625 13.492188 19.273438 13.546875 19.285156 C 13.554688 19.292969 13.566406 19.3125 13.585938 19.320312 C 13.667969 20.773438 13.695312 22.238281 13.667969 23.699219 C 13.648438 24.730469 13.546875 25.742188 13.621094 26.773438 C 13.6875 27.554688 13.742188 28.339844 13.726562 29.136719 Z M 13.726562 29.136719 "/>
</g>
</svg>
